<svg xmlns="http://www.w3.org/2000/svg" viewBox="0 0 1600 1000">
  <defs>
    <linearGradient id="bg" x1="0" x2="1" y1="0" y2="1">
      <stop offset="0" stop-color="#fff8fb"/>
      <stop offset=".38" stop-color="#ffe1f0"/>
      <stop offset=".72" stop-color="#efe1ff"/>
      <stop offset="1" stop-color="#ffffff"/>
    </linearGradient>
    <radialGradient id="glow" cx="50%" cy="50%" r="50%">
      <stop offset="0" stop-color="#fff" stop-opacity=".95"/>
      <stop offset=".45" stop-color="#f5a8c8" stop-opacity=".42"/>
      <stop offset="1" stop-color="#f5a8c8" stop-opacity="0"/>
    </radialGradient>
    <filter id="blur">
      <feGaussianBlur stdDeviation="18"/>
    </filter>
  </defs>
  <rect width="1600" height="1000" fill="url(#bg)"/>
  <circle cx="310" cy="260" r="230" fill="url(#glow)"/>
  <circle cx="1260" cy="180" r="260" fill="#d7c1ff" opacity=".35" filter="url(#blur)"/>
  <circle cx="1120" cy="760" r="310" fill="#ffd8e9" opacity=".5" filter="url(#blur)"/>
  <path d="M182 702 C330 580 475 765 620 630 S930 420 1110 548 1320 720 1490 590" fill="none" stroke="#fff" stroke-width="3" opacity=".55"/>
  <path d="M116 805 C280 692 390 880 564 748 S792 585 956 715 1232 870 1480 708" fill="none" stroke="#d95c91" stroke-width="2" opacity=".16"/>
  <g opacity=".7">
    <circle cx="210" cy="146" r="3" fill="#fff"/>
    <circle cx="420" cy="426" r="2" fill="#f6d48f"/>
    <circle cx="760" cy="178" r="4" fill="#fff"/>
    <circle cx="1030" cy="312" r="3" fill="#f6d48f"/>
    <circle cx="1390" cy="455" r="3" fill="#fff"/>
    <circle cx="1280" cy="820" r="2" fill="#fff"/>
    <circle cx="620" cy="820" r="3" fill="#f6d48f"/>
  </g>
</svg>
